<svg id="visual" viewBox="0 0 1700 300" width="1700" height="300" xmlns="http://www.w3.org/2000/svg" xmlns:xlink="http://www.w3.org/1999/xlink" version="1.1"><rect x="0" y="0" width="1700" height="300" fill="#FFFFFF"></rect><path d="M0 152L23.7 152.7C47.3 153.3 94.7 154.7 141.8 145.5C189 136.3 236 116.7 283.2 114.3C330.3 112 377.7 127 425 144.7C472.3 162.3 519.7 182.7 566.8 178.3C614 174 661 145 708.2 129C755.3 113 802.7 110 850 119.7C897.3 129.3 944.7 151.7 991.8 145.7C1039 139.7 1086 105.3 1133.2 112.2C1180.3 119 1227.7 167 1275 175.2C1322.3 183.3 1369.7 151.7 1416.8 138C1464 124.3 1511 128.7 1558.2 143.8C1605.3 159 1652.7 185 1676.3 198L1700 211L1700 0L1676.3 0C1652.7 0 1605.3 0 1558.2 0C1511 0 1464 0 1416.8 0C1369.7 0 1322.3 0 1275 0C1227.7 0 1180.3 0 1133.2 0C1086 0 1039 0 991.8 0C944.7 0 897.3 0 850 0C802.7 0 755.3 0 708.2 0C661 0 614 0 566.8 0C519.7 0 472.3 0 425 0C377.7 0 330.3 0 283.2 0C236 0 189 0 141.8 0C94.7 0 47.3 0 23.7 0L0 0Z" fill="#6B9080" stroke-linecap="round" stroke-linejoin="miter"></path></svg>